<?xml version="1.0" encoding="UTF-8" standalone="no"?>
<svg
   xmlns:osb="http://www.openswatchbook.org/uri/2009/osb"
   xmlns:dc="http://purl.org/dc/elements/1.1/"
   xmlns:cc="http://creativecommons.org/ns#"
   xmlns:rdf="http://www.w3.org/1999/02/22-rdf-syntax-ns#"
   xmlns:svg="http://www.w3.org/2000/svg"
   xmlns="http://www.w3.org/2000/svg"
   xmlns:xlink="http://www.w3.org/1999/xlink"
   xmlns:sodipodi="http://sodipodi.sourceforge.net/DTD/sodipodi-0.dtd"
   xmlns:inkscape="http://www.inkscape.org/namespaces/inkscape"
   inkscape:export-ydpi="96"
   inkscape:export-xdpi="96"
   inkscape:export-filename="/home/mael/Bureau/logo_v2.png"
   inkscape:version="1.0 (4035a4fb49, 2020-05-01)"
   sodipodi:docname="logo_v2.svg"
   id="svg8"
   version="1.1"
   viewBox="0 0 158.74999 158.74999"
   height="600"
   width="600">
  <defs
     id="defs2">
    <linearGradient
       inkscape:collect="always"
       id="linearGradient3213">
      <stop
         style="stop-color:#253645;stop-opacity:1"
         offset="0"
         id="stop3209" />
      <stop
         style="stop-color:#00a3ff;stop-opacity:1"
         offset="1"
         id="stop3211" />
    </linearGradient>
    <linearGradient
       id="linearGradient2864"
       osb:paint="solid">
      <stop
         style="stop-color:#1a1a1a;stop-opacity:1;"
         offset="0"
         id="stop2862" />
    </linearGradient>
    <linearGradient
       id="linearGradient2856"
       osb:paint="solid">
      <stop
         style="stop-color:#1a1a1a;stop-opacity:1;"
         offset="0"
         id="stop2854" />
    </linearGradient>
    <linearGradient
       inkscape:collect="always"
       xlink:href="#linearGradient3213"
       id="linearGradient3215"
       x1="61.237015"
       y1="-78.060394"
       x2="590.16339"
       y2="567.28363"
       gradientUnits="userSpaceOnUse"
       gradientTransform="matrix(0.26458332,0,0,0.26458332,-0.12851183,-3.0491658)" />
  </defs>
  <sodipodi:namedview
     inkscape:window-maximized="1"
     inkscape:window-y="435"
     inkscape:window-x="0"
     inkscape:window-height="1024"
     inkscape:window-width="1920"
     units="px"
     inkscape:guide-bbox="true"
     showguides="true"
     borderlayer="true"
     showgrid="false"
     inkscape:document-rotation="0"
     inkscape:current-layer="layer1"
     inkscape:document-units="px"
     inkscape:cy="526.46179"
     inkscape:cx="321.90264"
     inkscape:zoom="0.74301458"
     inkscape:pageshadow="2"
     inkscape:pageopacity="0.0"
     borderopacity="1.0"
     bordercolor="#666666"
     pagecolor="#ffffff"
     id="base"
     inkscape:snap-object-midpoints="true"
     inkscape:snap-center="true"
     inkscape:lockguides="false" />
  <metadata
     id="metadata5">
    <rdf:RDF>
      <cc:Work
         rdf:about="">
        <dc:format>image/svg+xml</dc:format>
        <dc:type
           rdf:resource="http://purl.org/dc/dcmitype/StillImage" />
        <dc:title />
      </cc:Work>
    </rdf:RDF>
  </metadata>
  <g
     id="layer1"
     inkscape:groupmode="layer"
     inkscape:label="Calque 1">
    <path
       style="opacity:1;fill:url(#linearGradient3215);fill-opacity:1;fill-rule:nonzero;stroke:none;stroke-width:0.40237;stroke-miterlimit:4;stroke-dasharray:none;stroke-opacity:1"
       d="m 12.105993,137.36264 c 0.171842,-0.44782 66.660346,-116.063161 66.894548,-116.321409 0.135815,-0.149761 24.168309,40.860905 25.276369,43.133303 0.16252,0.33329 -3.80633,7.399102 -16.681528,29.698419 -9.292138,16.093597 -16.894791,29.364887 -16.894791,29.491757 0,0.13515 3.52539,0.23067 8.51354,0.23067 h 8.51354 l 12.700329,-22.008 c 6.98519,-12.104414 12.74478,-21.965027 12.7991,-21.912483 0.13709,0.132617 33.46262,57.636753 33.42259,57.671633 -0.0178,0.0155 -7.53074,0.10346 -16.6954,0.19542 l -16.66301,0.16722 4.04877,-6.99395 c 2.22683,-3.84666 4.09758,-7.17799 4.15722,-7.40294 0.10721,-0.40434 -8.14862,-14.06931 -8.50011,-14.06931 -0.0989,0 -3.04568,4.95725 -6.5483,11.01611 -3.5026,6.05886 -7.189529,12.43246 -8.193163,14.16357 l -1.824783,3.14746 -25.230607,0.0642 c -21.810752,0.0555 -25.211854,0.0153 -25.09223,-0.29645 0.153275,-0.39944 16.215684,-28.37748 31.596299,-55.035503 5.47279,-9.485558 9.945078,-17.360502 9.938416,-17.499874 -0.02029,-0.424534 -8.285204,-14.525981 -8.517516,-14.532437 -0.119229,-0.0033 -11.558894,19.637853 -25.421473,43.647035 l -25.204691,43.653069 -8.261857,0.0664 c -6.857137,0.0551 -8.239652,0.009 -8.131262,-0.27389 z"
       id="path3173" />
  </g>
</svg>
